<svg xmlns="http://www.w3.org/2000/svg" viewBox="0 0 494 26" width="494" height="26">
  <defs>
        <linearGradient x1="50%" y1="0%" x2="50%" y2="100%" id="linearGradient-1">
            <stop stop-color="#FAD961" offset="0%"></stop>
            <stop stop-color="#F76B1C" offset="100%"></stop>
        </linearGradient>
        <linearGradient id="a" x1="50%" x2="50%" y1="0%" y2="99.04536%"><stop offset="0" stop-color="#fad961"/><stop offset="1" stop-color="#f76b1c"/></linearGradient>
    </defs>
  <svg viewBox="0 0 26 26" width="26" height="26">
    <path d="M19.7921777778 9.7983111111c-.1168-.1176-.2144-.2704-.292-.4584-.0784-.1896-.1184-.3944-.1184-.6152 0-.4688.1728-.876.5184-1.22.344-.3456.7576-.5176 1.2392-.5176.468 0 .8784.172 1.2296.5176.3512.344.5272.7512.5272 1.22 0 .4552-.1528.8496-.4584 1.1816-.3056.3312-.6744.5232-1.1024.5752l-2.656 7.1848c-1.0408-.1432-2.0568-.2504-3.0456-.3224-.9896-.0712-1.8608-.1072-2.6168-.1072-1.184 0-2.2288.0552-3.132.1664-.9048.1096-1.7352.1976-2.4904.2632l-2.5968-7.2048c-.4288 0-.8064-.172-1.132-.516-.3248-.3456-.488-.7528-.488-1.2208 0-.4816.176-.8952.5272-1.24s.768-.5176 1.2488-.5176c.4696 0 .876.1728 1.22.5176.3456.3448.5184.7584.5184 1.24 0 .1296-.0296.2696-.088.42-.0592.1488-.172.36-.3424.6344l2.5192 2.8704 1.0536-5.096c-.3384-.0128-.6504-.1864-.9368-.5176-.2856-.332-.4288-.732-.4288-1.2008 0-.5072.1816-.944.5464-1.308.364-.364.8-.5472 1.308-.5472s.9464.1832 1.3176.5472c.3712.364.5568.8008.5568 1.308 0 .2864-.0752.5728-.2248.8584-.1496.2864-.3608.5016-.6344.6448l1.7376 5.0368h.0392l1.6792-5.0368c-.2344-.1952-.4168-.4192-.5464-.6736-.1304-.2544-.1952-.5304-.1952-.8296 0-.5072.1808-.944.5464-1.308.364-.364.8008-.5472 1.308-.5472.5072 0 .9464.1832 1.3176.5472.3704.364.5568.8008.5568 1.308 0 .4424-.1176.8064-.3512 1.0928-.2344.2864-.5408.4944-.9176.6256l.8392 5.096 2.44-2.8512zm-14.1344 12.6712c0-.56.0576-1.2568.1752-2.0896.1168-.8328.5344-1.2816 1.2496-1.3472.7544-.0648 1.6304-.1496 2.6264-.2536.9952-.104 2.0856-.156 3.2704-.156.7544 0 1.6256.036 2.616.108.9888.0704 2.004.172 3.0448.3016.7816.0912 1.2328.5144 1.3568 1.2696.1232.7544.1856 1.4768.1856 2.1672h-14.5248z" fill="url(#a)" fill-rule="evenodd"/>
    <path d="M13 13z" fill="#e82121" stroke="#e82121" stroke-width="0"/>
  </svg>
  <svg viewBox="0 0 26 26" width="26" height="26" x="26">
    <path d="M19.7921777778 9.7983111111c-.1168-.1176-.2144-.2704-.292-.4584-.0784-.1896-.1184-.3944-.1184-.6152 0-.4688.1728-.876.5184-1.22.344-.3456.7576-.5176 1.2392-.5176.468 0 .8784.172 1.2296.5176.3512.344.5272.7512.5272 1.22 0 .4552-.1528.8496-.4584 1.1816-.3056.3312-.6744.5232-1.1024.5752l-2.656 7.1848c-1.0408-.1432-2.0568-.2504-3.0456-.3224-.9896-.0712-1.8608-.1072-2.6168-.1072-1.184 0-2.2288.0552-3.132.1664-.9048.1096-1.7352.1976-2.4904.2632l-2.5968-7.2048c-.4288 0-.8064-.172-1.132-.516-.3248-.3456-.488-.7528-.488-1.2208 0-.4816.176-.8952.5272-1.24s.768-.5176 1.2488-.5176c.4696 0 .876.1728 1.22.5176.3456.3448.5184.7584.5184 1.24 0 .1296-.0296.2696-.088.42-.0592.1488-.172.36-.3424.6344l2.5192 2.8704 1.0536-5.096c-.3384-.0128-.6504-.1864-.9368-.5176-.2856-.332-.4288-.732-.4288-1.2008 0-.5072.1816-.944.5464-1.308.364-.364.8-.5472 1.308-.5472s.9464.1832 1.3176.5472c.3712.364.5568.8008.5568 1.308 0 .2864-.0752.5728-.2248.8584-.1496.2864-.3608.5016-.6344.6448l1.7376 5.0368h.0392l1.6792-5.0368c-.2344-.1952-.4168-.4192-.5464-.6736-.1304-.2544-.1952-.5304-.1952-.8296 0-.5072.1808-.944.5464-1.308.364-.364.8008-.5472 1.308-.5472.5072 0 .9464.1832 1.3176.5472.3704.364.5568.8008.5568 1.308 0 .4424-.1176.8064-.3512 1.0928-.2344.2864-.5408.4944-.9176.6256l.8392 5.096 2.44-2.8512zm-14.1344 12.6712c0-.56.0576-1.2568.1752-2.0896.1168-.8328.5344-1.2816 1.2496-1.3472.7544-.0648 1.6304-.1496 2.6264-.2536.9952-.104 2.0856-.156 3.2704-.156.7544 0 1.6256.036 2.616.108.9888.0704 2.004.172 3.0448.3016.7816.0912 1.2328.5144 1.3568 1.2696.1232.7544.1856 1.4768.1856 2.1672h-14.5248z" fill="#e82121"/>
    <path d="M13 12.6265982933c-.2062110925 0-.3734017067.1671906142-.3734017067.3734017067s.1671906142.3734017067.3734017067.3734017067S13.3734017067 13.2062110925 13.3734017067 13 13.2062110925 12.6265982933 13 12.6265982933z" fill="#e82121" stroke="#e82121" stroke-width=".2972530913079061"/>
  </svg>
  <svg viewBox="0 0 26 26" width="26" height="26" x="52">
    <path d="M19.7921777778 9.7983111111c-.1168-.1176-.2144-.2704-.292-.4584-.0784-.1896-.1184-.3944-.1184-.6152 0-.4688.1728-.876.5184-1.22.344-.3456.7576-.5176 1.2392-.5176.468 0 .8784.172 1.2296.5176.3512.344.5272.7512.5272 1.22 0 .4552-.1528.8496-.4584 1.1816-.3056.3312-.6744.5232-1.1024.5752l-2.656 7.1848c-1.0408-.1432-2.0568-.2504-3.0456-.3224-.9896-.0712-1.8608-.1072-2.6168-.1072-1.184 0-2.2288.0552-3.132.1664-.9048.1096-1.7352.1976-2.4904.2632l-2.5968-7.2048c-.4288 0-.8064-.172-1.132-.516-.3248-.3456-.488-.7528-.488-1.2208 0-.4816.176-.8952.5272-1.24s.768-.5176 1.2488-.5176c.4696 0 .876.1728 1.22.5176.3456.3448.5184.7584.5184 1.24 0 .1296-.0296.2696-.088.42-.0592.1488-.172.36-.3424.6344l2.5192 2.8704 1.0536-5.096c-.3384-.0128-.6504-.1864-.9368-.5176-.2856-.332-.4288-.732-.4288-1.2008 0-.5072.1816-.944.5464-1.308.364-.364.8-.5472 1.308-.5472s.9464.1832 1.3176.5472c.3712.364.5568.8008.5568 1.308 0 .2864-.0752.5728-.2248.8584-.1496.2864-.3608.5016-.6344.6448l1.7376 5.0368h.0392l1.6792-5.0368c-.2344-.1952-.4168-.4192-.5464-.6736-.1304-.2544-.1952-.5304-.1952-.8296 0-.5072.1808-.944.5464-1.308.364-.364.8008-.5472 1.308-.5472.5072 0 .9464.1832 1.3176.5472.3704.364.5568.8008.5568 1.308 0 .4424-.1176.8064-.3512 1.0928-.2344.2864-.5408.4944-.9176.6256l.8392 5.096 2.44-2.8512zm-14.1344 12.6712c0-.56.0576-1.2568.1752-2.0896.1168-.8328.5344-1.2816 1.2496-1.3472.7544-.0648 1.6304-.1496 2.6264-.2536.9952-.104 2.0856-.156 3.2704-.156.7544 0 1.6256.036 2.616.108.9888.0704 2.004.172 3.0448.3016.7816.0912 1.2328.5144 1.3568 1.2696.1232.7544.1856 1.4768.1856 2.1672h-14.5248z" fill="#e82121"/>
    <path d="M13 11.5063931733c-.82484437 0-1.4936068267.6687624567-1.4936068267 1.4936068267S12.17515563 14.4936068267 13 14.4936068267 14.4936068267 13.82484437 14.4936068267 13 13.82484437 11.5063931733 13 11.5063931733z" fill="#e82121" stroke="#e82121" stroke-width="1.0220323929264978"/>
  </svg>
  <svg viewBox="0 0 26 26" width="26" height="26" x="78">
    <path d="M19.7921777778 9.7983111111c-.1168-.1176-.2144-.2704-.292-.4584-.0784-.1896-.1184-.3944-.1184-.6152 0-.4688.1728-.876.5184-1.22.344-.3456.7576-.5176 1.2392-.5176.468 0 .8784.172 1.2296.5176.3512.344.5272.7512.5272 1.22 0 .4552-.1528.8496-.4584 1.1816-.3056.3312-.6744.5232-1.1024.5752l-2.656 7.1848c-1.0408-.1432-2.0568-.2504-3.0456-.3224-.9896-.0712-1.8608-.1072-2.6168-.1072-1.184 0-2.2288.0552-3.132.1664-.9048.1096-1.7352.1976-2.4904.2632l-2.5968-7.2048c-.4288 0-.8064-.172-1.132-.516-.3248-.3456-.488-.7528-.488-1.2208 0-.4816.176-.8952.5272-1.24s.768-.5176 1.2488-.5176c.4696 0 .876.1728 1.22.5176.3456.3448.5184.7584.5184 1.24 0 .1296-.0296.2696-.088.42-.0592.1488-.172.36-.3424.6344l2.5192 2.8704 1.0536-5.096c-.3384-.0128-.6504-.1864-.9368-.5176-.2856-.332-.4288-.732-.4288-1.2008 0-.5072.1816-.944.5464-1.308.364-.364.8-.5472 1.308-.5472s.9464.1832 1.3176.5472c.3712.364.5568.8008.5568 1.308 0 .2864-.0752.5728-.2248.8584-.1496.2864-.3608.5016-.6344.6448l1.7376 5.0368h.0392l1.6792-5.0368c-.2344-.1952-.4168-.4192-.5464-.6736-.1304-.2544-.1952-.5304-.1952-.8296 0-.5072.1808-.944.5464-1.308.364-.364.8008-.5472 1.308-.5472.5072 0 .9464.1832 1.3176.5472.3704.364.5568.8008.5568 1.308 0 .4424-.1176.8064-.3512 1.0928-.2344.2864-.5408.4944-.9176.6256l.8392 5.096 2.44-2.8512zm-14.1344 12.6712c0-.56.0576-1.2568.1752-2.0896.1168-.8328.5344-1.2816 1.2496-1.3472.7544-.0648 1.6304-.1496 2.6264-.2536.9952-.104 2.0856-.156 3.2704-.156.7544 0 1.6256.036 2.616.108.9888.0704 2.004.172 3.0448.3016.7816.0912 1.2328.5144 1.3568 1.2696.1232.7544.1856 1.4768.1856 2.1672h-14.5248z" fill="#e82121"/>
    <path d="M13 9.63938464c-1.8558998326 0-3.36061536 1.5047155274-3.36061536 3.36061536 0 1.8558998326 1.5047155274 3.36061536 3.36061536 3.36061536 1.8558998326 0 3.36061536-1.5047155274 3.36061536-3.36061536 0-1.8558998326-1.5047155274-3.36061536-3.36061536-3.36061536z" fill="#e82121" stroke="#e82121" stroke-width="1.6733979873428626"/>
  </svg>
  <svg viewBox="0 0 26 26" width="26" height="26" x="104">
    <path d="M19.7921777778 9.7983111111c-.1168-.1176-.2144-.2704-.292-.4584-.0784-.1896-.1184-.3944-.1184-.6152 0-.4688.1728-.876.5184-1.22.344-.3456.7576-.5176 1.2392-.5176.468 0 .8784.172 1.2296.5176.3512.344.5272.7512.5272 1.22 0 .4552-.1528.8496-.4584 1.1816-.3056.3312-.6744.5232-1.1024.5752l-2.656 7.1848c-1.0408-.1432-2.0568-.2504-3.0456-.3224-.9896-.0712-1.8608-.1072-2.6168-.1072-1.184 0-2.2288.0552-3.132.1664-.9048.1096-1.7352.1976-2.4904.2632l-2.5968-7.2048c-.4288 0-.8064-.172-1.132-.516-.3248-.3456-.488-.7528-.488-1.2208 0-.4816.176-.8952.5272-1.24s.768-.5176 1.2488-.5176c.4696 0 .876.1728 1.22.5176.3456.3448.5184.7584.5184 1.24 0 .1296-.0296.2696-.088.42-.0592.1488-.172.36-.3424.6344l2.5192 2.8704 1.0536-5.096c-.3384-.0128-.6504-.1864-.9368-.5176-.2856-.332-.4288-.732-.4288-1.2008 0-.5072.1816-.944.5464-1.308.364-.364.8-.5472 1.308-.5472s.9464.1832 1.3176.5472c.3712.364.5568.8008.5568 1.308 0 .2864-.0752.5728-.2248.8584-.1496.2864-.3608.5016-.6344.6448l1.7376 5.0368h.0392l1.6792-5.0368c-.2344-.1952-.4168-.4192-.5464-.6736-.1304-.2544-.1952-.5304-.1952-.8296 0-.5072.1808-.944.5464-1.308.364-.364.8008-.5472 1.308-.5472.5072 0 .9464.1832 1.3176.5472.3704.364.5568.8008.5568 1.308 0 .4424-.1176.8064-.3512 1.0928-.2344.2864-.5408.4944-.9176.6256l.8392 5.096 2.44-2.8512zm-14.1344 12.6712c0-.56.0576-1.2568.1752-2.0896.1168-.8328.5344-1.2816 1.2496-1.3472.7544-.0648 1.6304-.1496 2.6264-.2536.9952-.104 2.0856-.156 3.2704-.156.7544 0 1.6256.036 2.616.108.9888.0704 2.004.172 3.0448.3016.7816.0912 1.2328.5144 1.3568 1.2696.1232.7544.1856 1.4768.1856 2.1672h-14.5248z" fill="#e82121"/>
    <path d="M13 7.0255726933C9.7006225199 7.0255726933 7.0255726933 9.70062252 7.0255726933 13S9.70062252 18.9744273067 13 18.9744273067 18.9744273067 16.29937748 18.9744273067 13 16.29937748 7.0255726933 13 7.0255726933z" fill="#e82121" fill-opacity=".5692892305" stroke="#e82121" stroke-width="1.416450014205173"/>
  </svg>
  <svg viewBox="0 0 26 26" width="26" height="26" x="130">
    <path d="M19.7921777778 9.7983111111c-.1168-.1176-.2144-.2704-.292-.4584-.0784-.1896-.1184-.3944-.1184-.6152 0-.4688.1728-.876.5184-1.22.344-.3456.7576-.5176 1.2392-.5176.468 0 .8784.172 1.2296.5176.3512.344.5272.7512.5272 1.22 0 .4552-.1528.8496-.4584 1.1816-.3056.3312-.6744.5232-1.1024.5752l-2.656 7.1848c-1.0408-.1432-2.0568-.2504-3.0456-.3224-.9896-.0712-1.8608-.1072-2.6168-.1072-1.184 0-2.2288.0552-3.132.1664-.9048.1096-1.7352.1976-2.4904.2632l-2.5968-7.2048c-.4288 0-.8064-.172-1.132-.516-.3248-.3456-.488-.7528-.488-1.2208 0-.4816.176-.8952.5272-1.24s.768-.5176 1.2488-.5176c.4696 0 .876.1728 1.22.5176.3456.3448.5184.7584.5184 1.24 0 .1296-.0296.2696-.088.42-.0592.1488-.172.36-.3424.6344l2.5192 2.8704 1.0536-5.096c-.3384-.0128-.6504-.1864-.9368-.5176-.2856-.332-.4288-.732-.4288-1.2008 0-.5072.1816-.944.5464-1.308.364-.364.8-.5472 1.308-.5472s.9464.1832 1.3176.5472c.3712.364.5568.8008.5568 1.308 0 .2864-.0752.5728-.2248.8584-.1496.2864-.3608.5016-.6344.6448l1.7376 5.0368h.0392l1.6792-5.0368c-.2344-.1952-.4168-.4192-.5464-.6736-.1304-.2544-.1952-.5304-.1952-.8296 0-.5072.1808-.944.5464-1.308.364-.364.8008-.5472 1.308-.5472.5072 0 .9464.1832 1.3176.5472.3704.364.5568.8008.5568 1.308 0 .4424-.1176.8064-.3512 1.0928-.2344.2864-.5408.4944-.9176.6256l.8392 5.096 2.44-2.8512zm-14.1344 12.6712c0-.56.0576-1.2568.1752-2.0896.1168-.8328.5344-1.2816 1.2496-1.3472.7544-.0648 1.6304-.1496 2.6264-.2536.9952-.104 2.0856-.156 3.2704-.156.7544 0 1.6256.036 2.616.108.9888.0704 2.004.172 3.0448.3016.7816.0912 1.2328.5144 1.3568 1.2696.1232.7544.1856 1.4768.1856 2.1672h-14.5248z" fill="#e82121"/>
    <path d="M13 3.6649573333c-5.1552773127 0-9.3350426667 4.179765354-9.3350426667 9.3350426667S7.8447226873 22.3350426667 13 22.3350426667 22.3350426667 18.1552773127 22.3350426667 13 18.1552773127 3.6649573333 13 3.6649573333z" fill="#e82121" fill-opacity=".0850580595" stroke="#e82121" stroke-width=".48600167462324"/>
  </svg>
  <svg viewBox="0 0 26 26" width="26" height="26" x="156">
    <path d="M19.7921777778 9.7983111111c-.1168-.1176-.2144-.2704-.292-.4584-.0784-.1896-.1184-.3944-.1184-.6152 0-.4688.1728-.876.5184-1.22.344-.3456.7576-.5176 1.2392-.5176.468 0 .8784.172 1.2296.5176.3512.344.5272.7512.5272 1.22 0 .4552-.1528.8496-.4584 1.1816-.3056.3312-.6744.5232-1.1024.5752l-2.656 7.1848c-1.0408-.1432-2.0568-.2504-3.0456-.3224-.9896-.0712-1.8608-.1072-2.6168-.1072-1.184 0-2.2288.0552-3.132.1664-.9048.1096-1.7352.1976-2.4904.2632l-2.5968-7.2048c-.4288 0-.8064-.172-1.132-.516-.3248-.3456-.488-.7528-.488-1.2208 0-.4816.176-.8952.5272-1.24s.768-.5176 1.2488-.5176c.4696 0 .876.1728 1.22.5176.3456.3448.5184.7584.5184 1.24 0 .1296-.0296.2696-.088.42-.0592.1488-.172.36-.3424.6344l2.5192 2.8704 1.0536-5.096c-.3384-.0128-.6504-.1864-.9368-.5176-.2856-.332-.4288-.732-.4288-1.2008 0-.5072.1816-.944.5464-1.308.364-.364.8-.5472 1.308-.5472s.9464.1832 1.3176.5472c.3712.364.5568.8008.5568 1.308 0 .2864-.0752.5728-.2248.8584-.1496.2864-.3608.5016-.6344.6448l1.7376 5.0368h.0392l1.6792-5.0368c-.2344-.1952-.4168-.4192-.5464-.6736-.1304-.2544-.1952-.5304-.1952-.8296 0-.5072.1808-.944.5464-1.308.364-.364.8008-.5472 1.308-.5472.5072 0 .9464.1832 1.3176.5472.3704.364.5568.8008.5568 1.308 0 .4424-.1176.8064-.3512 1.0928-.2344.2864-.5408.4944-.9176.6256l.8392 5.096 2.44-2.8512zm-14.1344 12.6712c0-.56.0576-1.2568.1752-2.0896.1168-.8328.5344-1.2816 1.2496-1.3472.7544-.0648 1.6304-.1496 2.6264-.2536.9952-.104 2.0856-.156 3.2704-.156.7544 0 1.6256.036 2.616.108.9888.0704 2.004.172 3.0448.3016.7816.0912 1.2328.5144 1.3568 1.2696.1232.7544.1856 1.4768.1856 2.1672h-14.5248z" fill="#e82121"/>
    <path d="M13 1.7271481504C6.774567566 1.7271481504 1.7271481504 6.7745675661 1.7271481504 13c0 6.225432434 5.0474194157 11.2728518496 11.2728518496 11.2728518496 6.225432434 0 11.2728518496-5.0474194157 11.2728518496-11.2728518496 0-6.225432434-5.0474194157-11.2728518496-11.2728518496-11.2728518496z" fill="#e82121" fill-opacity=".0000524848" stroke="#e82121" stroke-width="2.10883827383914"/>
  </svg>
  <svg viewBox="0 0 26 26" width="26" height="26" x="182">
    <path d="M19.7921777778 9.7983111111c-.1168-.1176-.2144-.2704-.292-.4584-.0784-.1896-.1184-.3944-.1184-.6152 0-.4688.1728-.876.5184-1.22.344-.3456.7576-.5176 1.2392-.5176.468 0 .8784.172 1.2296.5176.3512.344.5272.7512.5272 1.22 0 .4552-.1528.8496-.4584 1.1816-.3056.3312-.6744.5232-1.1024.5752l-2.656 7.1848c-1.0408-.1432-2.0568-.2504-3.0456-.3224-.9896-.0712-1.8608-.1072-2.6168-.1072-1.184 0-2.2288.0552-3.132.1664-.9048.1096-1.7352.1976-2.4904.2632l-2.5968-7.2048c-.4288 0-.8064-.172-1.132-.516-.3248-.3456-.488-.7528-.488-1.2208 0-.4816.176-.8952.5272-1.24s.768-.5176 1.2488-.5176c.4696 0 .876.1728 1.22.5176.3456.3448.5184.7584.5184 1.24 0 .1296-.0296.2696-.088.42-.0592.1488-.172.36-.3424.6344l2.5192 2.8704 1.0536-5.096c-.3384-.0128-.6504-.1864-.9368-.5176-.2856-.332-.4288-.732-.4288-1.2008 0-.5072.1816-.944.5464-1.308.364-.364.8-.5472 1.308-.5472s.9464.1832 1.3176.5472c.3712.364.5568.8008.5568 1.308 0 .2864-.0752.5728-.2248.8584-.1496.2864-.3608.5016-.6344.6448l1.7376 5.0368h.0392l1.6792-5.0368c-.2344-.1952-.4168-.4192-.5464-.6736-.1304-.2544-.1952-.5304-.1952-.8296 0-.5072.1808-.944.5464-1.308.364-.364.8008-.5472 1.308-.5472.5072 0 .9464.1832 1.3176.5472.3704.364.5568.8008.5568 1.308 0 .4424-.1176.8064-.3512 1.0928-.2344.2864-.5408.4944-.9176.6256l.8392 5.096 2.44-2.8512zm-14.1344 12.6712c0-.56.0576-1.2568.1752-2.0896.1168-.8328.5344-1.2816 1.2496-1.3472.7544-.0648 1.6304-.1496 2.6264-.2536.9952-.104 2.0856-.156 3.2704-.156.7544 0 1.6256.036 2.616.108.9888.0704 2.004.172 3.0448.3016.7816.0912 1.2328.5144 1.3568 1.2696.1232.7544.1856 1.4768.1856 2.1672h-14.5248z" fill="#f0703d"/>
    <path d="M13 3.4251978997c-5.2876844599 0-9.5748021003 4.2871176404-9.5748021003 9.5748021003 0 5.2876844599 4.2871176404 9.5748021003 9.5748021003 9.5748021003 5.2876844599 0 9.5748021003-4.2871176404 9.5748021003-9.5748021003 0-5.2876844599-4.2871176404-9.5748021003-9.5748021003-9.5748021003z" fill="none" stroke="#f0703d" stroke-width="2.3702569803153284"/>
  </svg>
  <svg viewBox="0 0 26 26" width="26" height="26" x="208">
    <path d="M19.7921777778 9.7983111111c-.1168-.1176-.2144-.2704-.292-.4584-.0784-.1896-.1184-.3944-.1184-.6152 0-.4688.1728-.876.5184-1.22.344-.3456.7576-.5176 1.2392-.5176.468 0 .8784.172 1.2296.5176.3512.344.5272.7512.5272 1.22 0 .4552-.1528.8496-.4584 1.1816-.3056.3312-.6744.5232-1.1024.5752l-2.656 7.1848c-1.0408-.1432-2.0568-.2504-3.0456-.3224-.9896-.0712-1.8608-.1072-2.6168-.1072-1.184 0-2.2288.0552-3.132.1664-.9048.1096-1.7352.1976-2.4904.2632l-2.5968-7.2048c-.4288 0-.8064-.172-1.132-.516-.3248-.3456-.488-.7528-.488-1.2208 0-.4816.176-.8952.5272-1.24s.768-.5176 1.2488-.5176c.4696 0 .876.1728 1.22.5176.3456.3448.5184.7584.5184 1.24 0 .1296-.0296.2696-.088.42-.0592.1488-.172.36-.3424.6344l2.5192 2.8704 1.0536-5.096c-.3384-.0128-.6504-.1864-.9368-.5176-.2856-.332-.4288-.732-.4288-1.2008 0-.5072.1816-.944.5464-1.308.364-.364.8-.5472 1.308-.5472s.9464.1832 1.3176.5472c.3712.364.5568.8008.5568 1.308 0 .2864-.0752.5728-.2248.8584-.1496.2864-.3608.5016-.6344.6448l1.7376 5.0368h.0392l1.6792-5.0368c-.2344-.1952-.4168-.4192-.5464-.6736-.1304-.2544-.1952-.5304-.1952-.8296 0-.5072.1808-.944.5464-1.308.364-.364.8008-.5472 1.308-.5472.5072 0 .9464.1832 1.3176.5472.3704.364.5568.8008.5568 1.308 0 .4424-.1176.8064-.3512 1.0928-.2344.2864-.5408.4944-.9176.6256l.8392 5.096 2.44-2.8512zm-14.1344 12.6712c0-.56.0576-1.2568.1752-2.0896.1168-.8328.5344-1.2816 1.2496-1.3472.7544-.0648 1.6304-.1496 2.6264-.2536.9952-.104 2.0856-.156 3.2704-.156.7544 0 1.6256.036 2.616.108.9888.0704 2.004.172 3.0448.3016.7816.0912 1.2328.5144 1.3568 1.2696.1232.7544.1856 1.4768.1856 2.1672h-14.5248z" fill="#f8c95c"/>
    <path d="M13 4.3764442357c-4.7623586708 0-8.6235557643 3.8611970935-8.6235557643 8.6235557643 0 4.7623586708 3.8611970935 8.6235557643 8.6235557643 8.6235557643 4.7623586708 0 8.6235557643-3.8611970935 8.6235557643-8.6235557643 0-4.7623586708-3.8611970935-8.6235557643-8.6235557643-8.6235557643z" fill="none" stroke="#f8c95c" stroke-width="2.013598533606828"/>
  </svg>
  <svg viewBox="0 0 26 26" width="26" height="26" x="234">
    <path d="M19.7921777778 9.7983111111c-.1168-.1176-.2144-.2704-.292-.4584-.0784-.1896-.1184-.3944-.1184-.6152 0-.4688.1728-.876.5184-1.22.344-.3456.7576-.5176 1.2392-.5176.468 0 .8784.172 1.2296.5176.3512.344.5272.7512.5272 1.22 0 .4552-.1528.8496-.4584 1.1816-.3056.3312-.6744.5232-1.1024.5752l-2.656 7.1848c-1.0408-.1432-2.0568-.2504-3.0456-.3224-.9896-.0712-1.8608-.1072-2.6168-.1072-1.184 0-2.2288.0552-3.132.1664-.9048.1096-1.7352.1976-2.4904.2632l-2.5968-7.2048c-.4288 0-.8064-.172-1.132-.516-.3248-.3456-.488-.7528-.488-1.2208 0-.4816.176-.8952.5272-1.24s.768-.5176 1.2488-.5176c.4696 0 .876.1728 1.22.5176.3456.3448.5184.7584.5184 1.24 0 .1296-.0296.2696-.088.42-.0592.1488-.172.36-.3424.6344l2.5192 2.8704 1.0536-5.096c-.3384-.0128-.6504-.1864-.9368-.5176-.2856-.332-.4288-.732-.4288-1.2008 0-.5072.1816-.944.5464-1.308.364-.364.8-.5472 1.308-.5472s.9464.1832 1.3176.5472c.3712.364.5568.8008.5568 1.308 0 .2864-.0752.5728-.2248.8584-.1496.2864-.3608.5016-.6344.6448l1.7376 5.0368h.0392l1.6792-5.0368c-.2344-.1952-.4168-.4192-.5464-.6736-.1304-.2544-.1952-.5304-.1952-.8296 0-.5072.1808-.944.5464-1.308.364-.364.8008-.5472 1.308-.5472.5072 0 .9464.1832 1.3176.5472.3704.364.5568.8008.5568 1.308 0 .4424-.1176.8064-.3512 1.0928-.2344.2864-.5408.4944-.9176.6256l.8392 5.096 2.44-2.8512zm-14.1344 12.6712c0-.56.0576-1.2568.1752-2.0896.1168-.8328.5344-1.2816 1.2496-1.3472.7544-.0648 1.6304-.1496 2.6264-.2536.9952-.104 2.0856-.156 3.2704-.156.7544 0 1.6256.036 2.616.108.9888.0704 2.004.172 3.0448.3016.7816.0912 1.2328.5144 1.3568 1.2696.1232.7544.1856 1.4768.1856 2.1672h-14.5248z" fill="#fad961"/>
    <path d="M13 4.5808871584c-4.6494550668 0-8.4191128416 3.7696577748-8.4191128416 8.4191128416S8.3505449332 21.4191128416 13 21.4191128416 21.4191128416 17.6494550668 21.4191128416 13 17.6494550668 4.5808871584 13 4.5808871584z" fill="none" stroke="#fad961" stroke-width="1.2200732409865396"/>
  </svg>
  <svg viewBox="0 0 26 26" width="26" height="26" x="260">
    <path d="M20.212474918 9.6090950844c-.1293767545-.1302628966-.2374860972-.299516048-.3234418862-.5077594542-.086841931-.2100156905-.1311490387-.4368680819-.1311490387-.6814433163 0-.5192793022.1914067052-.9703256586.5742201157-1.3513667848.3810411262-.3828134104.8391766197-.5733339735 1.3726341964-.5733339735.51839316 0 .972984085.190520563 1.3620004905.5733339735.3890164056.3810411262.5839676795.8320874826.5839676795 1.3513667848 0 .5042148855-.1692531514.9410829674-.5077594542 1.3088319613-.3385063028.3668628517-.7470178358.5795369686-1.2211038881.6371362086l-2.941991951 7.9584426842c-1.1528709422-.1586194455-2.2782714776-.2773624942-3.3735431799-.357115288-1.0961578443-.0788666517-2.06116665-.1187430486-2.8985709854-.1187430486-1.3114903878 0-2.4687920408.0611438086-3.4692465325.184317568-1.002226776.121401475-1.9220423318.218877112-2.7585605251.2915407686L3.6035125274 10.34370693c-.4749721945 0-.8932312911-.1905205631-1.2538911478-.5715616893-.3597737144-.3828134105-.5405467138-.8338597668-.5405467138-1.3522529268 0-.5334575767.1949512738-.9915930703.5839676794-1.3735203386.3890164056-.3819272683.8506964677-.5733339736 1.3832679022-.5733339736.5201654444 0 .9703256586.1914067053 1.3513667847.5733339736.3828134105.3819272683.5742201158.8400627619.5742201158 1.3735203386 0 .1435550289-.0327872597.2986299058-.097475637.4652246308-.0655745194.1648224406-.190520563.3987639692-.3792688418.702710728l2.7904616426 3.1794780482 1.1670492167-5.6447255204c-.3748381311-.0141782744-.7204335711-.2064711218-1.0376724622-.5733339735-.316352749-.367748994-.4749721945-.8108200709-.4749721945-1.330099373 0-.5618141256.201154269-1.0456477416.6052350911-1.4488424217.40319468-.40319468.8861421539-.6061212332 1.4488424216-.6061212332.5627002678 0 1.048306168.2029265532 1.4594761275.6061212332.4111699594.40319468.6167549391.887028296.6167549391 1.4488424217 0 .317238891-.0832973624.6344777821-.2490059452.950830531-.1657085828.3172388912-.3996501114.5556111306-.702710728.7142305761l1.9247007582 5.579151001h.0434209655l1.860012381-5.579151001c-.259639651-.2162186855-.461680062-.4643384886-.605235091-.7461316935-.1444411711-.281793205-.2162186856-.587512248-.2162186856-.9189294136 0-.5618141256.2002681268-1.0456477416.6052350911-1.4488424217.40319468-.40319468.887028296-.6061212332 1.4488424217-.6061212332.5618141255 0 1.048306168.2029265532 1.4594761274.6061212332.4102838173.40319468.6167549392.887028296.6167549392 1.4488424217 0 .490036611-.1302628967.893231291-.3890164056 1.2104701822-.259639651.317238891-.599032096.5476358511-1.0164050505.6929631643l.9295631194 5.6447255204 2.7027335694-3.1582106365zM4.556115343 23.64470066c0-.6202995078.063802235-1.3921293238.1940651317-2.314603306.1293767544-.9224739823.5919429588-1.4195997306 1.3841540444-1.4922633872.8356320511-.0717775145 1.8059577096-.1657085828 2.9092046912-.2809070628 1.1023608395-.11519848 2.3101725953-.17279772 3.6225491252-.17279772.8356320511 0 1.8006408567.039876397 2.8976848432.1196291908 1.0952717023.0779805095 2.2197860956.190520563 3.3726570378.334075592.8657608844.1010202055 1.3655450592.569789405 1.502897093 1.4063075982.1364658917.8356320512.2055849797 1.6358184161.2055849797 2.400559095H4.556115343z" fill="#fad65f"/>
    <path d="M13 4.0385266677c-4.9489736477 0-8.9614733323 4.0124996846-8.9614733323 8.9614733323 0 4.9489736477 4.0124996846 8.9614733323 8.9614733323 8.9614733323 4.9489736477 0 8.9614733323-4.0124996846 8.9614733323-8.9614733323 0-4.9489736477-4.0124996846-8.9614733323-8.9614733323-8.9614733323z" fill="none" stroke="#fad65f" stroke-width=".11285931830247795"/>
  </svg>
  <svg viewBox="0 0 26 26" width="26" height="26" x="286">
    <path d="M20.6849984553 9.3963669506c-.1435163046-.144499293-.263440888-.3322500751-.3587907616-.5632523463-.096332862-.232968248-.1454822815-.4846132754-.1454822815-.7559180705 0-.5760311954.2123254919-1.076372285.6369764755-1.4990572918.422685007-.4246509837.9308900036-.6359934871 1.5226490132-.6359934871.575048207 0 1.0793212501.2113425034 1.5108531525.635993487.4315319024.422685007.6477893477.9230260965.6477893477 1.499057292 0 .5593203927-.187750782 1.043933668-.5632523463 1.4518738491-.3755015643.4069571927-.8286592112.6428744058-1.3545579988.706768651l-3.2635214485 8.8282187136c-1.278867893-.1759549215-2.5272631458-.3076753655-3.7422367935-.3961443205-1.215956636-.0874859665-2.2864309907-.131720444-3.2153550174-.131720444-1.4548228144 0-2.7386056493.0678261988-3.8483995394.2044615848-1.111759867.1346694091-2.1321018138.2427981318-3.0600428522.3234031797l-3.1907803077-8.8527934232c-.526881776 0-.9908522952-.2113425035-1.3909285692-.6340275104C.4708252426 9.1525858304.2702956114 8.652244741.2702956114 8.0771965338c0-.5917590096.2162574454-1.0999640063.6477893477-1.5236320015.4315319024-.4236679953.9436688526-.6359934871 1.5344448739-.6359934871.5770141838 0 1.076372285.2123254918 1.4990572918.635993487.4246509837.4236679953.6369764755.931872992.6369764755 1.5236320016 0 .1592441189-.0363705704.3312670868-.1081287227.5160689038-.0727411407.1828358402-.2113425034.4423447746-.4207190301.7795097917l3.0954304341 3.5269623365 1.2945957071-6.2616360322c-.4158040881-.0157278142-.7991695595-.2290362944-1.1510794024-.635993487-.3509268546-.4079401811-.526881776-.8994343752-.526881776-1.4754655706 0-.623214638.223138364-1.159926298.671381069-1.6071860145.4472597166-.4472597166.9829883881-.6723640575 1.6071860145-.6723640575.6241976265 0 1.1628752632.2251043409 1.6189818752.6723640575.4561066121.4472597166.6841599182.9839713765.6841599182 1.6071860145 0 .351909843-.0924009085.7038196859-.2762197371 1.0547465404-.1838188286.351909843-.443327763.6163337194-.7795097918.7922886408l2.135050779 6.1888948915h.048166431l2.0632926266-6.1888948915c-.2880155977-.2398491666-.5121369502-.5150859153-.671381069-.8276762227-.1602271073-.3125903074-.2398491668-.6517213013-.2398491668-1.0193589585 0-.623214638.2221553758-1.159926298.6713810691-1.6071860145.4472597166-.4472597166.9839713765-.6723640575 1.6071860145-.6723640575.6232146381 0 1.1628752632.2251043409 1.6189818752.6723640575.4551236237.4472597166.6841599182.9839713765.6841599182 1.6071860145 0 .5435925786-.1444992931.9908522952-.4315319024 1.3427621382-.2880155977.3519098429-.6645001504.6074868238-1.1274876812.7686969194l1.0311548191 6.2616360322 2.9981145837-3.5033706152zM3.3175596145 24.9659200296c0-.6880918716.070775164-1.5442747576.215274457-2.5675656696.1435163046-1.023290912.6566362432-1.5747473978 1.5354278622-1.6553524456.92695805-.0796220594 2.003330335-.1838188286 3.227150878-.311607319 1.2228375549-.1277884905 2.5626507279-.1916827357 4.0184565306-.1916827357.92695805 0 1.9974324046.0442344775 3.214372029.1327034324 1.2149736478.0865029782 2.4623859123.2113425034 3.7412538052.3705866223.9603796551.1120606763 1.514785106.6320615336 1.6671483062 1.560002572.1513802118.9269580499.228053306 1.8145965643.228053306 2.6629155433H3.3175596145z" fill="#f9c655"/>
    <path d="M13 2.7493627637C7.3390855863 2.7493627637 2.7493627637 7.3390855863 2.7493627637 13S7.3390855863 23.2506372363 13 23.2506372363 23.2506372363 18.6609144137 23.2506372363 13 18.6609144137 2.7493627637 13 2.7493627637z" fill="none" stroke="#f9c655" stroke-width=".8108058894672715"/>
  </svg>
  <svg viewBox="0 0 26 26" width="26" height="26" x="312">
    <path d="M20.7679487841 9.3590230572c-.1459984674-.146998457-.2679971868-.337996452-.3649961686-.5729939853-.0979989713-.2369975122-.1479984464-.492994825-.1479984464-.7689919278 0-.5859938488.2159977326-1.0949885058.647993198-1.5249839921.4299954863-.4319954653.9469900593-.6469932085 1.5489837402-.6469932085.5849938592 0 1.0979884743.2149977432 1.5369838661.6469932085.4389953918.4299954863.6589930825.9389901433.6589930825 1.524983992 0 .5689940273-.190997995 1.0619888523-.5729939852 1.476984496-.3819959902.4139956543-.842991151.653993135-1.3779855352.7189924528l-3.31996515 8.9809057267c-1.3009863435-.178998121-2.5709730124-.3129967144-3.8069600381-.4029957697-1.2369870153-.0889990658-2.325975584-.1339985934-3.2709656645-.1339985934-1.4799844645 0-2.7859707554.0689992757-3.9149589043.2079978166-1.130988128.136998562-2.1689772321.2469974073-3.112967323.3289965465l-3.2459659268-9.0059054643c-.5359943737 0-1.0079894191-.2149977432-1.4149851468-.6449932295C.2041646437 9.1110256604.000166785 8.6020310034.000166785 8.0170371441c0-.6019936808.2199976907-1.1189882539.6589930825-1.5499837297.4389953918-.4309954758.959989923-.6469932085 1.5609836142-.6469932085.5869938383 0 1.0949885059.2159977327 1.5249839922.6469932085.4319954653.4309954758.647993198.9479900489.647993198 1.5499837297 0 .1619982995-.0369996117.3369964625-.1099988454.524994489-.0739992232.1859980477-.2149977431.4499952765-.4279955073.792991676l3.148966945 3.5879623369L8.32107944 6.5530525117c-.4229955598-.0159998321-.812991466-.2329975543-1.170987708-.6469932085-.3569962527-.4149956438-.5359943737-.9149903953-.5359943737-1.500984244 0-.633993345.2269976172-1.1799876136.6829928306-1.6349828375.4549952238-.454995224.999989503-.6839928201 1.6349828374-.6839928201.6349933344 0 1.1829875821.2289975962 1.6469827115.68399282.4639951294.454995224.6959926941 1.0009894926.6959926941 1.6349828375 0 .3579962421-.0939990133.7159924842-.2809970503 1.0729887368-.186998037.357996242-.4509952659.6269934184-.792991676.8059915394l2.1719772007 6.2959339111h.0489994856l2.0989779669-6.295933911c-.2929969244-.2439974388-.5209945311-.5239944997-.6829928306-.8419911616-.162998289-.317996662-.2439974387-.6629930405-.2439974387-1.0369891147 0-.6339933449.2259976277-1.1799876135.6829928305-1.6349828374.454995224-.454995224 1.0009894926-.6839928201 1.6349828375-.6839928201.633993345 0 1.182987582.2289975962 1.6469827115.68399282.46299514.454995224.6959926941 1.0009894926.6959926941 1.6349828375 0 .5529941952-.146998457 1.007989419-.4389953918 1.3659856612-.2929969244.357996242-.675992904.6179935129-1.14698796.7819917914l1.0489889887 6.3699331343 3.0499679842-3.5639625888zM3.1001342445 25.1978567957c0-.699992652.0719992442-1.5709835092.2189977012-2.6119725819.1459984674-1.0409890726.667992988-1.6019831839 1.5619836037-1.6839823231.9429901014-.0809991497 2.0379786072-.186998037 3.2829655385-.3169966725 1.2439869418-.1299986354 2.6069726344-.194997953 4.0879570884-.194997953.9429901014 0 2.0319786702.0449995276 3.269965675.1349985829 1.2359870257.0879990762 2.504973705.2149977431 3.8059600485.3769960426.9769897444.1139988033 1.5409838241.6429932505 1.6959821971 1.5869833413.1539983835.9429901014.2319975647 1.8459806226.2319975647 2.7089715637H3.1001342446z" fill="#f9a742"/>
    <path d="M13 1.15766656C6.4600713578 1.15766656 1.15766656 6.4600713578 1.15766656 13c0 6.5399286422 5.3024047978 11.84233344 11.84233344 11.84233344 6.5399286422 0 11.84233344-5.3024047978 11.84233344-11.84233344 0-6.5399286422-5.3024047978-11.84233344-11.84233344-11.84233344z" fill="none" stroke="#f9a742" stroke-width=".841650937467233"/>
  </svg>
  <svg viewBox="0 0 26 26" width="26" height="26" x="338">
    <path d="M19.8200040537 9.7857838373c-.117632659-.1184383623-.2159284427-.2723276629-.2940816477-.4616679019-.0789589082-.1909516452-.1192440654-.3972116502-.1192440654-.6195857181 0-.4721420427.1740318792-.8822449433.5220956376-1.2286972955.3464523522-.3480637584.763000878-.5212899345 1.248034171-.5212899345.4713363395 0 .8846620527.173226176 1.2383657331.5212899345.3537036805.3464523522.5309583723.7565552528.5309583723 1.2286972955 0 .4584450892-.1538893006.8556567395-.4616679018 1.1900235445-.3077786013.3335611018-.679207751.5269298565-1.1102589332.579300561l-2.67493444 7.2360199411c-1.048219791-.1442208629-2.0714627846-.2521850842-3.0673118713-.3246983672-.9966547898-.0717075799-1.8740655142-.1079642214-2.6354549858-.1079642214-1.192440654 0-2.2446889607.055593517-3.1543278109.167586254-.9112502565.1103813309-1.7475701205.1990086768-2.508153889.2650763346l-2.6153124072-7.2561625198c-.4318568855 0-.8121487697-.173226176-1.1400699495-.5196785282-.3271154767-.3480637585-.4914789182-.758166659-.4914789182-1.2295029986 0-.485033293.1772546918-.9015818188.5309583723-1.248839874.3537036804-.3472580554.7734750187-.5212899346 1.2577026086-.5212899346.4729477459 0 .8822449433.1740318792 1.2286972954.5212899345.3480637585.3472580553.5220956377.763806581.5220956377 1.248839874 0 .1305239095-.0298110163.2715219598-.0886273459.422994151-.0596220327.1498607849-.173226176.362566415-.3448409459.6389225936l2.5371592022 2.8908628826 1.0611110414-5.1323290307c-.3408124301-.0128912504-.6550366565-.1877288327-.9434783823-.5212899346-.2876360226-.334366805-.4318568854-.7372183772-.4318568854-1.20936042 0-.5108157936.1828946138-.9507297105.5502952477-1.3173246413.3665949308-.3665949307.8057031445-.5511009509 1.3173246413-.5511009509.5116214968 0 .95314682.1845060202 1.3269930791.551100951.373846259.3665949307.5607693886.8065088476.5607693886 1.3173246413 0 .2884417257-.0757360956.5768834515-.2264025836.864519474-.150666488.2884417258-.3633721182.5051758717-.6389225936.6493967346l1.74998723 5.072706998h.039479454l1.6911709004-5.072706998c-.2360710213-.1965915673-.4197713383-.4221884478-.5502952477-.6784020477-.1313296126-.2562136-.1965915673-.5341811849-.1965915673-.835514161 0-.5108157936.1820889107-.9507297105.5502952477-1.3173246413.3665949308-.3665949307.8065088477-.5511009509 1.3173246414-.5511009509.5108157936 0 .95314682.1845060202 1.326993079.551100951.373040556.3665949307.5607693887.8065088476.5607693887 1.3173246413 0 .4455538389-.1184383623.8121487697-.3537036805 1.1005904954-.2360710213.2884417258-.5446553257.4979245434-.9241415068.630059859l.8451825986 5.1323290308 2.457394591-2.8715260071zM5.5848408958 22.5473159438c0-.5639922012.0580106264-1.26575964.1764489887-2.1044966136.117632659-.8387369734.5382097005-1.2907364375 1.2585083117-1.3568040954.7597780654-.0652619547 1.6420230086-.150666488 2.6451234236-.2554078968 1.0022947118-.1047414088 2.1004680979-.1571121132 3.293714455-.1571121132.7597780652 0 1.6371887897.0362566415 2.6346492826.1087699245.9958490867.0709018767 2.0182863771.173226176 3.0665061682.3037500855.7871719722.0918501585 1.2415885457.518067122 1.3664725331 1.2786508904.1240782843.7597780653.1869231296 1.4873280049.1869231296 2.1826498186H5.5848408958z" fill="#f88d31"/>
    <path d="M13 2.0319973333C6.9429205273 2.0319973333 2.0319973333 6.9429205273 2.0319973333 13S6.9429205273 23.9680026667 13 23.9680026667 23.9680026667 19.0570794727 23.9680026667 13 19.0570794727 2.0319973333 13 2.0319973333z" fill="none" stroke="#f88d31" stroke-width=".11084458524031253"/>
  </svg>
  <svg viewBox="0 0 26 26" width="26" height="26" x="364">
    <path d="M19.8031544487 9.7933694595c-.1171284603-.11793071-.215002927-.271160408-.2928211506-.459689094-.0786204733-.1901331854-.1187329597-.3955091156-.1187329597-.6169300405 0-.4701183403.1732859412-.8784634517.5198578235-1.2234308345.3449673828-.3465718823.759730492-.5190555738 1.242684828-.5190555738.4693160907 0 .880870201.1724836915 1.2330578313.5190555738.3521876304.3449673828.5286825705.7533124942.5286825705 1.2234308345 0 .456480095-.153229698.8519892107-.4596890939 1.1849228477-.306459396.3321313872-.6762965204.5246713218-1.1055001246.5768175541l-2.6634690956 7.2050048035c-1.0437268956-.1436027012-2.0625840497-.2511041647-3.054164713-.3233066402-.992382913-.0714002257-1.8660328663-.1075014635-2.6241588589-.1075014635-1.1873295968 0-2.235067741.0553552312-3.1408076835.1668679433-.907344442.1099082127-1.7400796592.1981556828-2.497403402.2639401604l-2.6041026158-7.2250610467c-.430005854 0-.8086677254-.1724836914-1.1351833645-.5174510742-.3257133894-.3465718824-.4893723338-.7549169937-.4893723338-1.2242330844 0-.482954336.17649494-.8977174451.5286825704-1.2434870777.3521876305-.3457696326.7701597385-.5190555738 1.2523118248-.5190555738.4709205901 0 .8784634517.1732859412 1.2234308346.5190555738.3465718823.3457696326.5198578235.7605327417.5198578235 1.2434870777 0 .129964456-.02968324.2703581582-.08824747.421181107-.05936648.1492184494-.1724836915.3610123774-.3433628835.636184034l2.5262843922 2.8784720226L9.8175520893 7.542256724c-.3393516347-.0128359957-.6522290285-.1869241866-.939434431-.5190555738-.2864031527-.332933637-.430005854-.7340585007-.430005854-1.2041768411 0-.5086263273.1821106882-.9466546786.547936564-1.3116783046.365023626-.365023626.8022497276-.5487388137 1.3116783046-.5487388137s.9490614277.1837151876 1.3213053013.5487388137c.3722438736.365023626.5583658104.8030519773.5583658104 1.3116783046 0 .2872054025-.0754114743.574410805-.2254321734.8608139577-.150020699.2872054025-.3618146272.5030105792-.636184034.6466132804l1.7424864083 5.050964285h.0393102367l1.6839221782-5.050964285c-.2350591702-.1957489335-.417972108-.4203788572-.547936564-.6754942706-.1307667055-.2551154134-.1957489335-.5318915694-.1957489335-.8319329675 0-.5086263273.1813084385-.9466546786.547936564-1.3116783046.365023626-.365023626.8030519773-.5487388137 1.3116783046-.5487388137s.9490614277.1837151876 1.3213053013.5487388137c.3714416239.365023626.5583658104.8030519773.5583658104 1.3116783046 0 .4436440993-.11793071.8086677254-.3521876304 1.0958731279-.2350591702.2872054025-.5423208158.4957903316-.9201804375.627359287l.8415599642 5.1103307647 2.4468616692-2.8592180291zM5.6290062616 22.5002028948c0-.5615748093.0577619804-1.260334322.1756926903-2.0954762885.1171284603-.8351419664.535902818-1.2852040636 1.2531140745-1.3509885413.7565214932-.0649822279 1.6349849449-.150020699 2.6337858557-.2543131636.9979986611-.1042924646 2.0914650398-.1564386969 3.2795968864-.1564386969.7565214931 0 1.6301714465.0361012378 2.6233566092.1083037132.9915806633.070597976 2.0096355676.1724836915 3.0533624632.3024481473.7837979839.091456469 1.2362668302.5158465749 1.360615538 1.2731703177.123546458.7565214932.1861219368 1.4809529972.1861219368 2.173294512H5.6290062616z" fill="#f77d27"/>
    <path d="M13 2.1595246933C7.0133475119 2.1595246933 2.1595246933 7.013347512 2.1595246933 13S7.013347512 23.8404753067 13 23.8404753067 23.8404753067 18.986652488 23.8404753067 13 18.986652488 2.1595246933 13 2.1595246933z" fill="none" stroke="#f77d27" stroke-width=".46754165597100544"/>
  </svg>
  <svg viewBox="0 0 26 26" width="26" height="26" x="390">
    <path d="M19.8050049228 9.7925363837c-.1171838328-.1179864619-.2151045699-.2712885994-.2929595821-.4599064125-.0786576413-.1902230712-.1187890909-.3956960932-.1187890909-.617221695 0-.4703405895.1733678623-.8788787465.520103587-1.2240092131.3451304666-.3467357247.7600896556-.519300958 1.2432723089-.519300958.4695379604 0 .8812866334.1725652333 1.233640761.519300958.3523541276.3451304666.5289325059.7536686236.5289325059 1.224009213 0 .4566958966-.1533021376.8523919898-.4599064126 1.1854830215-.306604275.3322884028-.6766162404.524919361-1.1060227512.5770902454l-2.6647282541 7.208410979c-1.0442203189-.1436705896-2.063559139-.2512228746-3.0556085733-.3234594839-.9928520634-.0714339803-1.8669150359-.107552285-2.6253994335-.107552285-1.1878909085 0-2.2361243723.0553814005-3.1422925045.1669468304-.9077733901.109960172-1.740902284.1982493611-2.4985840527.2640649385L4.761329722 10.4579158182c-.4302091398 0-.809050024-.1725652333-1.135720024-.5176957-.3258673707-.3467357246-.4896036852-.7552738816-.4896036852-1.224811842 0-.4831826533.1765783783-.8981418423.528932506-1.244074938.3523541275-.3459330956.7705238324-.5193009579 1.2529038567-.5193009579.4711432184 0 .8788787465.1733678623 1.2240092131.519300958.3467357247.3459330956.520103587.7608922846.520103587 1.2440749379 0 .1300258967-.0296972727.2704859703-.0882891892.4213802209-.0593945454.1492889925-.1725652333.3611830465-.3435252086.6364847908l2.5274786964 2.879832824L9.814681857 7.5403594316c-.3395120637-.0128420639-.6525373706-.1870125552-.9398785498-.519300958-.2865385502-.3330910317-.4302091399-.7344055278-.4302091399-1.2047461173 0-.508866781.1821967813-.9471022108.5481956017-1.3122984022.3651961915-.3651961915.8026289922-.5489982307 1.3122984023-.5489982307.50966941 0 .9495100977.1838020392 1.3219299501.5489982307.3724198524.3651961914.5586297786.8034316212.5586297786 1.3122984022 0 .2873411792-.0754471253.5746823585-.2255387468.8612209087-.1500916216.2873411792-.3619856755.503248378-.6364847908.6469189677l1.743310171 5.0533521349h.0393288206l1.6847182547-5.053352135c-.2351702948-.195841474-.418169705-.4205775918-.5481956017-.6758136113-.1308285257-.2552360196-.1958414741-.5321430219-.1958414741-.832326265 0-.508866781.1813941522-.9471022108.5481956017-1.3122984022.3651961914-.3651961915.8034316212-.5489982307 1.3122984022-.5489982307.508866781 0 .9495100978.1838020392 1.3219299502.5489982307.3716172233.3651961914.5586297785.8034316212.5586297785 1.3122984022 0 .4438538327-.1179864618.8090500242-.3523541275 1.0963912034-.2351702948.2873411792-.5425771988.4960247172-.9206154541.6276558719l.8419578128 5.1127466803 2.4480184262-2.8605697282zM5.6241558887 22.505376991c0-.5618402945.0577892874-1.2609301467.1757757493-2.0964669276.1171838328-.8355367809.5361561667-1.2858116455 1.2537064858-1.3516272229.7568791396-.0650129483 1.635757886-.1500916215 2.6350309814-.2544333905.9984704663-.104341769 2.0924537826-.1565126535 3.28114732-.1565126535.7568791397 0 1.6309421122.0361183047 2.6245968046.108354914.9920494343.0706313513 2.0105856254.1725652333 3.0548059443.30259113.7841685253.0914997051 1.236851277.516090442 1.3612587707 1.2737722107.1236048648.7568791396.1862099262 1.4816531196.1862099262 2.1743219398H5.6241558887z" fill="url(#a)" fill-rule="evenodd"/>
    <path d="M13 1.54024864C6.6713523114 1.54024864 1.54024864 6.6713523114 1.54024864 13S6.6713523114 24.45975136 13 24.45975136 24.45975136 19.3286476886 24.45975136 13 19.3286476886 1.54024864 13 1.54024864z" fill="none" stroke="url(#linearGradient-1)" stroke-width=".0190995856"/>
  </svg>
  <svg viewBox="0 0 26 26" width="26" height="26" x="416">
    <path d="M19.7921777778 9.7983111111c-.1168-.1176-.2144-.2704-.292-.4584-.0784-.1896-.1184-.3944-.1184-.6152 0-.4688.1728-.876.5184-1.22.344-.3456.7576-.5176 1.2392-.5176.468 0 .8784.172 1.2296.5176.3512.344.5272.7512.5272 1.22 0 .4552-.1528.8496-.4584 1.1816-.3056.3312-.6744.5232-1.1024.5752l-2.656 7.1848c-1.0408-.1432-2.0568-.2504-3.0456-.3224-.9896-.0712-1.8608-.1072-2.6168-.1072-1.184 0-2.2288.0552-3.132.1664-.9048.1096-1.7352.1976-2.4904.2632l-2.5968-7.2048c-.4288 0-.8064-.172-1.132-.516-.3248-.3456-.488-.7528-.488-1.2208 0-.4816.176-.8952.5272-1.24s.768-.5176 1.2488-.5176c.4696 0 .876.1728 1.22.5176.3456.3448.5184.7584.5184 1.24 0 .1296-.0296.2696-.088.42-.0592.1488-.172.36-.3424.6344l2.5192 2.8704 1.0536-5.096c-.3384-.0128-.6504-.1864-.9368-.5176-.2856-.332-.4288-.732-.4288-1.2008 0-.5072.1816-.944.5464-1.308.364-.364.8-.5472 1.308-.5472s.9464.1832 1.3176.5472c.3712.364.5568.8008.5568 1.308 0 .2864-.0752.5728-.2248.8584-.1496.2864-.3608.5016-.6344.6448l1.7376 5.0368h.0392l1.6792-5.0368c-.2344-.1952-.4168-.4192-.5464-.6736-.1304-.2544-.1952-.5304-.1952-.8296 0-.5072.1808-.944.5464-1.308.364-.364.8008-.5472 1.308-.5472.5072 0 .9464.1832 1.3176.5472.3704.364.5568.8008.5568 1.308 0 .4424-.1176.8064-.3512 1.0928-.2344.2864-.5408.4944-.9176.6256l.8392 5.096 2.44-2.8512zm-14.1344 12.6712c0-.56.0576-1.2568.1752-2.0896.1168-.8328.5344-1.2816 1.2496-1.3472.7544-.0648 1.6304-.1496 2.6264-.2536.9952-.104 2.0856-.156 3.2704-.156.7544 0 1.6256.036 2.616.108.9888.0704 2.004.172 3.0448.3016.7816.0912 1.2328.5144 1.3568 1.2696.1232.7544.1856 1.4768.1856 2.1672h-14.5248z" fill="url(#a)" fill-rule="evenodd"/>
    <path d="M13 1.4000894933C6.5939494227 1.4000894933 1.4000894933 6.5939494227 1.4000894933 13S6.5939494227 24.5999105067 13 24.5999105067 24.5999105067 19.4060505773 24.5999105067 13 19.4060505773 1.4000894933 13 1.4000894933z" fill="none" stroke="url(#linearGradient-1)" stroke-opacity=".75" stroke-width=".019333184178"/>
  </svg>
  <svg viewBox="0 0 26 26" width="26" height="26" x="442">
    <path d="M19.7921777778 9.7983111111c-.1168-.1176-.2144-.2704-.292-.4584-.0784-.1896-.1184-.3944-.1184-.6152 0-.4688.1728-.876.5184-1.22.344-.3456.7576-.5176 1.2392-.5176.468 0 .8784.172 1.2296.5176.3512.344.5272.7512.5272 1.22 0 .4552-.1528.8496-.4584 1.1816-.3056.3312-.6744.5232-1.1024.5752l-2.656 7.1848c-1.0408-.1432-2.0568-.2504-3.0456-.3224-.9896-.0712-1.8608-.1072-2.6168-.1072-1.184 0-2.2288.0552-3.132.1664-.9048.1096-1.7352.1976-2.4904.2632l-2.5968-7.2048c-.4288 0-.8064-.172-1.132-.516-.3248-.3456-.488-.7528-.488-1.2208 0-.4816.176-.8952.5272-1.24s.768-.5176 1.2488-.5176c.4696 0 .876.1728 1.22.5176.3456.3448.5184.7584.5184 1.24 0 .1296-.0296.2696-.088.42-.0592.1488-.172.36-.3424.6344l2.5192 2.8704 1.0536-5.096c-.3384-.0128-.6504-.1864-.9368-.5176-.2856-.332-.4288-.732-.4288-1.2008 0-.5072.1816-.944.5464-1.308.364-.364.8-.5472 1.308-.5472s.9464.1832 1.3176.5472c.3712.364.5568.8008.5568 1.308 0 .2864-.0752.5728-.2248.8584-.1496.2864-.3608.5016-.6344.6448l1.7376 5.0368h.0392l1.6792-5.0368c-.2344-.1952-.4168-.4192-.5464-.6736-.1304-.2544-.1952-.5304-.1952-.8296 0-.5072.1808-.944.5464-1.308.364-.364.8008-.5472 1.308-.5472.5072 0 .9464.1832 1.3176.5472.3704.364.5568.8008.5568 1.308 0 .4424-.1176.8064-.3512 1.0928-.2344.2864-.5408.4944-.9176.6256l.8392 5.096 2.44-2.8512zm-14.1344 12.6712c0-.56.0576-1.2568.1752-2.0896.1168-.8328.5344-1.2816 1.2496-1.3472.7544-.0648 1.6304-.1496 2.6264-.2536.9952-.104 2.0856-.156 3.2704-.156.7544 0 1.6256.036 2.616.108.9888.0704 2.004.172 3.0448.3016.7816.0912 1.2328.5144 1.3568 1.2696.1232.7544.1856 1.4768.1856 2.1672h-14.5248z" fill="url(#a)" fill-rule="evenodd"/>
    <path d="M13 1.5731195733C6.6895052844 1.5731195733 1.5731195733 6.6895052843 1.5731195733 13c0 6.3104947156 5.116385711 11.4268804267 11.4268804267 11.4268804267 6.3104947156 0 11.4268804267-5.116385711 11.4268804267-11.4268804267 0-6.3104947156-5.116385711-11.4268804267-11.4268804267-11.4268804267z" fill="none" stroke="url(#linearGradient-1)" stroke-opacity=".25" stroke-width=".019044800712"/>
  </svg>
  <svg viewBox="0 0 26 26" width="26" height="26" x="468">
    <path d="M19.7921777778 9.7983111111c-.1168-.1176-.2144-.2704-.292-.4584-.0784-.1896-.1184-.3944-.1184-.6152 0-.4688.1728-.876.5184-1.22.344-.3456.7576-.5176 1.2392-.5176.468 0 .8784.172 1.2296.5176.3512.344.5272.7512.5272 1.22 0 .4552-.1528.8496-.4584 1.1816-.3056.3312-.6744.5232-1.1024.5752l-2.656 7.1848c-1.0408-.1432-2.0568-.2504-3.0456-.3224-.9896-.0712-1.8608-.1072-2.6168-.1072-1.184 0-2.2288.0552-3.132.1664-.9048.1096-1.7352.1976-2.4904.2632l-2.5968-7.2048c-.4288 0-.8064-.172-1.132-.516-.3248-.3456-.488-.7528-.488-1.2208 0-.4816.176-.8952.5272-1.24s.768-.5176 1.2488-.5176c.4696 0 .876.1728 1.22.5176.3456.3448.5184.7584.5184 1.24 0 .1296-.0296.2696-.088.42-.0592.1488-.172.36-.3424.6344l2.5192 2.8704 1.0536-5.096c-.3384-.0128-.6504-.1864-.9368-.5176-.2856-.332-.4288-.732-.4288-1.2008 0-.5072.1816-.944.5464-1.308.364-.364.8-.5472 1.308-.5472s.9464.1832 1.3176.5472c.3712.364.5568.8008.5568 1.308 0 .2864-.0752.5728-.2248.8584-.1496.2864-.3608.5016-.6344.6448l1.7376 5.0368h.0392l1.6792-5.0368c-.2344-.1952-.4168-.4192-.5464-.6736-.1304-.2544-.1952-.5304-.1952-.8296 0-.5072.1808-.944.5464-1.308.364-.364.8008-.5472 1.308-.5472.5072 0 .9464.1832 1.3176.5472.3704.364.5568.8008.5568 1.308 0 .4424-.1176.8064-.3512 1.0928-.2344.2864-.5408.4944-.9176.6256l.8392 5.096 2.44-2.8512zm-14.1344 12.6712c0-.56.0576-1.2568.1752-2.0896.1168-.8328.5344-1.2816 1.2496-1.3472.7544-.0648 1.6304-.1496 2.6264-.2536.9952-.104 2.0856-.156 3.2704-.156.7544 0 1.6256.036 2.616.108.9888.0704 2.004.172 3.0448.3016.7816.0912 1.2328.5144 1.3568 1.2696.1232.7544.1856 1.4768.1856 2.1672h-14.5248z" fill="url(#a)" fill-rule="evenodd"/>
    <path d="M13 1C6.373 1 1 6.373 1 13s5.373 12 12 12 12-5.373 12-12S19.627 1 13 1z" fill="none"/>
  </svg>
</svg>
